<svg xmlns="http://www.w3.org/2000/svg" viewBox="37.396367999999995 0 129.60000000000002 190.07712" style="max-height: 500px" width="129.60000000000002" height="190.07712">
  <title>Starfall</title>
  <desc>Starfall space invaders game logo: a stylized spaceship-star mark with a wordmark.</desc>

  
  <g transform="translate(20, 20)">
    
    <path opacity="0.55" stroke-linecap="round" stroke-width="10" stroke="#f59e0b" fill="none" d="M 118 10&#10;             C 70 10, 30 35, 30 68&#10;             C 30 96, 55 112, 88 112&#10;             C 112 112, 128 122, 128 140&#10;             C 128 158, 108 168, 82 168"/>

    
    <g transform="translate(96, 6) rotate(35)">
      <path fill="#09090b" d="M 0 -34 C 14 -20, 18 6, 12 30 L -12 30 C -18 6, -14 -20, 0 -34 Z"/>
      <path fill="#f59e0b" d="M -12 30 L -22 46 L -8 38 Z"/>
      <path fill="#f59e0b" d="M 12 30 L 22 46 L 8 38 Z"/>
      <circle fill="#ffffff" r="6" cy="-4" cx="0"/>
    </g>

    
    <g fill="#ffffff">
      <path d="M 140 30 L 143 38 L 151 41 L 143 44 L 140 52 L 137 44 L 129 41 L 137 38 Z"/>
      <path d="M 100 145 L 102 150 L 107 152 L 102 154 L 100 159 L 98 154 L 93 152 L 98 150 Z"/>
    </g>
  </g>

  
  <text fill="#09090b" font-weight="700" font-size="52" font-family="'Baloo 2', 'Comic Sans MS', sans-serif" y="105" x="180">Starfall</text>
  <text letter-spacing="4" fill="#f59e0b" font-weight="500" font-size="16" font-family="'Baloo 2', 'Comic Sans MS', sans-serif" y="130" x="181">SPACE INVADERS</text>
</svg>